<svg xmlns="http://www.w3.org/2000/svg" viewBox="0 0 592.12 785.28"><defs><style>.cls-1{fill:#1b3349;}</style></defs><g id="Capa_2" data-name="Capa 2"><g id="Capa_1-2" data-name="Capa 1"><path class="cls-1" d="M313.42,471.17H268c-147.78,0-268,120.23-268,268a29.45,29.45,0,1,0,58.9,0c0-115.3,93.8-209.1,209.1-209.1h45a15,15,0,0,1,14.25,9.73,15.31,15.31,0,0,1-3.64,17.31L157.67,718a29.45,29.45,0,0,0,41,42.3l166-160.91a74.62,74.62,0,0,0-51.23-128.23Z"/><path class="cls-1" d="M541.71,137.42H490.17V124a124,124,0,0,0-124-124H201.9a124,124,0,0,0-124,124v79.17c0,113.19,90,206,198.75,206.8,79.06,0,150.82-48.39,182.42-123.4,3.5-8.3,3.18-18.24-1.87-25.7-15.41-22.81-43.86-17.53-52.81,3.06-22.58,51.91-72.61,85.3-127.72,85.3-76.53-.58-139.87-66.11-139.87-146.06v-81A63.26,63.26,0,0,1,200.06,58.9H368a63.27,63.27,0,0,1,63.27,63.26v15.26H242.81a29.45,29.45,0,1,0,0,58.9h298.9a29.45,29.45,0,0,0,0-58.9Z"/><path class="cls-1" d="M433,785.28H355a29.45,29.45,0,0,1,0-58.9h78a29.45,29.45,0,1,1,0,58.9Zm159.13-31.15a275.39,275.39,0,0,0-102.33-214.7,30.37,30.37,0,0,0-38.27,47.17,214.89,214.89,0,0,1,79.87,167.53,30.37,30.37,0,0,0,60.73,0Z"/></g></g></svg>