<svg xmlns="http://www.w3.org/2000/svg" viewBox="0 0 834.39 456.38"><defs><style>.cls-1{fill:#1b3349;}</style></defs><g id="Capa_2" data-name="Capa 2"><g id="Capa_1-2" data-name="Capa 1"><path class="cls-1" d="M834.39,77.84c0,144.34-695.84,303.66-748.52,303.66-29.54,0-63.06-6.81-63.06-34,0-9.1,10.5-22.25,28.93-38.11l0,0L2.88,222.58A22.31,22.31,0,0,1,14,190.93l8.4-3.36a55.8,55.8,0,0,1,46.82,2.48L157.91,237c34.52-20.48,73.69-41.92,115-63L100.07,61.86a22.31,22.31,0,0,1,.28-37.6l14.13-8.88a100.37,100.37,0,0,1,79-12.06L480.94,79.15c89.64-35.58,170.67-59.86,218.64-59.86,12.81,0,25.64.34,38,1.22L650.79,59.7l-2.08,29.2,134-61.6C814.84,35,834.39,49.26,834.39,77.84ZM484.67,327,591.9,448.81A22.29,22.29,0,0,0,618,454.3l14.36-6.67a66.92,66.92,0,0,0,38.26-68.45L657.24,264.4a11.15,11.15,0,0,0-14.79-9.22L489.34,309.11A11.15,11.15,0,0,0,484.67,327Z"/></g></g></svg>