<svg xmlns="http://www.w3.org/2000/svg" viewBox="0 0 2313.13 506.77"><defs><style>.cls-1{fill:#fff;}</style></defs><g id="Capa_2" data-name="Capa 2"><g id="Capa_1-2" data-name="Capa 1"><polygon class="cls-1" points="327.65 282.6 403.01 282.6 465.19 0 392.97 0 327.65 282.6"/><path class="cls-1" d="M725.48,58.85c.93-2.91,5.76-19-3.14-35.8a47.11,47.11,0,0,0-25.75-22h-120a66.88,66.88,0,0,0-69.71,45.85L468,215.85c-.83,2.39-8.7,26.48,6.28,47.1,9.83,13.52,23.79,17.7,28.26,18.84H712.92c.9-3.05,5.81-20.67-4.4-38.31-11.81-20.41-33.87-23.54-36.42-23.86H544l40.19-161.4Z"/><path class="cls-1" d="M325.25,28.34C310.11,5.8,275.32.39,255.54.39H54.42C54,2.32,46,38.47,72.79,65.08,104.7,87.69,128.49,83,137.32,83H245.65a15,15,0,0,1,0,28.26H129.31l-6.89,28.09H56.26a7.1,7.1,0,1,0,0,14.2h62.68v0h22a7.11,7.11,0,0,1,0,14.21H82.5a7.1,7.1,0,0,0-7.1,7.1v.79a7.1,7.1,0,0,0,7.1,7.1h74.15a7.1,7.1,0,0,1,.91,14.14H32.26a7.11,7.11,0,0,0,0,14.21h72.57L87.39,282.21h73.48l21.19-90.9h55.58c7.42-.18,35.32-1.73,59.82-23.55,25.75-22.94,29.83-52.31,30.62-59.35C331.32,91.92,340.34,50.81,325.25,28.34Z"/><path class="cls-1" d="M37.44,153.53a7.1,7.1,0,1,0,0-14.2H29.87a7.1,7.1,0,0,0,0,14.2Z"/><path class="cls-1" d="M14.68,196.89H7.1a7.11,7.11,0,0,0,0,14.21h7.58a7.11,7.11,0,0,0,0-14.21Z"/><path class="cls-1" d="M1137.19,65.09q14.83-63.49,59-63.51h153q26.73,0,40.73,18.4t7.93,45.11L1348,280.4h-75.9L1287.71,213H1178.9l-15.66,67.38h-75.9Zm163.62,91.39,17.9-77.83q2.38-9.68-7.29-9.68H1222q-9.68,0-12.07,9.68L1192,156.48Z"/><path class="cls-1" d="M2062.8,280.4q-26.73,0-40.92-18.39t-7.74-45.12l35-151.8a89,89,0,0,1,25-45.11q18.9-18.39,45.63-18.4h142.89q26.71,0,40.73,18.4t7.93,45.11l-35,151.8q-6.46,26.73-25.18,45.12t-45.44,18.39ZM2233.24,74q1.35-5-3.68-5h-100.3c-3.36,0-5.48,1.68-6.38,5l-31.07,134c-.65,3.36.71,5,4.07,5h100.29c3.35,0,5.36-1.67,6-5Z"/><path class="cls-1" d="M1882.26,108.08c-.54,0-1.06.1-1.6.13h-16.41l-4,16.9c0,.17-.13.33-.17.51l-2.5,10.67a22.74,22.74,0,0,0,22.14,27.94h28.61l-6.46,27.87L1898.23,208c-.64,3.36-2.9,5-6.77,5H1789.22q-3.09,0-2.53-3.1L1818.16,74q1.35-5,6.39-5h143.8a22.74,22.74,0,0,0,22.15-17.6l5.09-21.9c.05-.22,0-.44.08-.67L2002,1.58H1815q-24.79,0-44.42,17.62t-26.19,45.89l-41.15,178.13q-3.58,15.51,4.7,26.34t23.78,10.84h177q48,0,62.87-63.51l18.66-81h0l6.42-27.84H1882.26Z"/><path class="cls-1" d="M1062.59,60.15c.92-2.87,5.7-18.78-3.1-35.36a46.55,46.55,0,0,0-25.44-21.72H915.55a66.08,66.08,0,0,0-68.86,45.3q-19.25,83.45-38.47,166.89c-.82,2.36-8.6,26.16,6.21,46.53,9.71,13.36,23.49,17.48,27.91,18.61h207.84c.89-3,5.74-20.42-4.34-37.84-11.67-20.17-33.46-23.27-36-23.58H883.29L923,59.53Z"/><path class="cls-1" d="M1693.89,20.79Q1679.84,2.21,1653.13,2.2H1459.5l-4.63,20-52.71,227.15L1394.81,281h55.35a25.83,25.83,0,0,0,25.17-20l11.85-51.34h0l4.62-20h20.55a25.84,25.84,0,0,1,23.28,14.63l14.94,31.07,14.94,31.06h0A25.83,25.83,0,0,0,1588.79,281h70.89l-21.61-38.48h0l-29.71-52.91h1.55q32.91,0,52.33-18.78a90.45,90.45,0,0,0,25.64-44.73l13.9-60.41Q1707.93,39.39,1693.89,20.79Zm-77.17,80.43-1,4.1a25.83,25.83,0,0,1-25.17,20h-79.74c-3.36,0-4.59-1.69-3.69-5l10.55-45.7c.64-3.36,2.65-5,6-5H1624Z"/><path class="cls-1" d="M417.61,477.92V396.39H388.49v-16.6h78v16.6H437.42v81.53Z"/><path class="cls-1" d="M515.74,477.92V467.28a27.45,27.45,0,0,1-10.21,9,28.65,28.65,0,0,1-13.35,3.28,26.05,26.05,0,0,1-12.85-3.15,18.5,18.5,0,0,1-8.23-8.84q-2.55-5.69-2.55-15.73v-45h18.81V439.5q0,15,1,18.37a10,10,0,0,0,3.78,5.36,11.6,11.6,0,0,0,7,2,14.85,14.85,0,0,0,8.64-2.64A13.48,13.48,0,0,0,513,456q1.39-3.92,1.4-19.18v-30h18.81v71.09Z"/><path class="cls-1" d="M590.91,477.92V379.79h72.76v16.6H610.73v21.75H660v16.54H610.73v26.71h54.82v16.53Z"/><path class="cls-1" d="M673.18,477.92l25.63-36.61-24.56-34.48h23l12.58,19.55L723,406.83h22.09L721,440.5l26.31,37.42H724.25l-14.46-22-14.59,22Z"/><path class="cls-1" d="M757.92,406.83h17.54v10.45a26.29,26.29,0,0,1,9.23-8.71,25.49,25.49,0,0,1,12.92-3.34q12.39,0,21,9.7T827.27,442q0,17.81-8.71,27.67t-21.08,9.88a24,24,0,0,1-10.68-2.34,36,36,0,0,1-10.07-8V505H757.92Zm18.61,34.34q0,12,4.75,17.71a14.55,14.55,0,0,0,11.58,5.72,13.58,13.58,0,0,0,10.91-5.25q4.35-5.27,4.35-17.24,0-11.17-4.48-16.6a13.86,13.86,0,0,0-11.11-5.42,14.42,14.42,0,0,0-11.45,5.32Q776.52,430.73,776.53,441.17Z"/><path class="cls-1" d="M883.36,455.3l18.74,3.14q-3.61,10.31-11.41,15.7t-19.51,5.39q-18.54,0-27.45-12.12-7-9.71-7-24.5,0-17.67,9.23-27.68t23.36-10q15.87,0,25,10.47t8.76,32.1H856c.14,5.58,1.65,9.92,4.56,13a14.21,14.21,0,0,0,10.84,4.65,11.49,11.49,0,0,0,7.43-2.41Q881.83,460.66,883.36,455.3Zm1.07-19q-.2-8.18-4.22-12.42a13.57,13.57,0,0,0-19.94.23q-4,4.48-3.95,12.19Z"/><path class="cls-1" d="M936.44,477.92H917.63V406.83H935.1v10.11q4.49-7.15,8.07-9.44a14.9,14.9,0,0,1,8.13-2.27,24,24,0,0,1,12.39,3.54l-5.83,16.4a16.52,16.52,0,0,0-8.83-3.08,10.45,10.45,0,0,0-6.7,2.18q-2.75,2.18-4.31,7.87T936.44,456Z"/><path class="cls-1" d="M1004.38,406.83v15H991.53v28.65q0,8.7.37,10.14a4.07,4.07,0,0,0,1.67,2.37,5.27,5.27,0,0,0,3.18.94,24.18,24.18,0,0,0,7.56-1.81l1.61,14.6a37.46,37.46,0,0,1-14.86,2.81,23.53,23.53,0,0,1-9.17-1.71,13.38,13.38,0,0,1-6-4.42,17.41,17.41,0,0,1-2.64-7.33q-.62-3.27-.61-13.25v-31H964v-15h8.63V392.71l18.88-11v25.1Z"/><path class="cls-1" d="M1013.08,441.37a38.45,38.45,0,0,1,4.62-18.14,31.73,31.73,0,0,1,13.09-13.39,38.92,38.92,0,0,1,18.91-4.61q16.13,0,26.44,10.47t10.31,26.48q0,16.13-10.41,26.74t-26.21,10.61a41.35,41.35,0,0,1-18.64-4.42,30.35,30.35,0,0,1-13.49-12.95Q1013.08,453.63,1013.08,441.37Zm19.28,1q0,10.58,5,16.2a16.42,16.42,0,0,0,24.74,0q5-5.62,5-16.34,0-10.44-5-16.06a16.42,16.42,0,0,0-24.74,0Q1032.36,431.81,1032.36,442.38Z"/><path class="cls-1" d="M1180.43,455.3l18.74,3.14q-3.62,10.31-11.41,15.7t-19.51,5.39q-18.54,0-27.45-12.12-7-9.71-7-24.5,0-17.67,9.24-27.68t23.36-10q15.87,0,25,10.47t8.76,32.1h-47.12q.21,8.37,4.55,13a14.25,14.25,0,0,0,10.85,4.65,11.51,11.51,0,0,0,7.43-2.41Q1178.88,460.66,1180.43,455.3Zm1.07-19q-.21-8.18-4.22-12.42a13.58,13.58,0,0,0-20,.23q-4,4.48-3.94,12.19Z"/><path class="cls-1" d="M1280.16,477.92h-18.8V441.64q0-11.5-1.21-14.89a10.45,10.45,0,0,0-3.91-5.26,11.21,11.21,0,0,0-6.53-1.87,15.05,15.05,0,0,0-8.77,2.68,13.47,13.47,0,0,0-5.32,7.09q-1.44,4.42-1.44,16.33v32.2h-18.81V406.83h17.47v10.45q9.3-12.06,23.43-12a28.15,28.15,0,0,1,11.38,2.24,19.21,19.21,0,0,1,7.8,5.72,20.86,20.86,0,0,1,3.68,7.9,59,59,0,0,1,1,12.65Z"/><path class="cls-1" d="M1338,477.92V380.59h19.81v80.8h49.27v16.53Z"/><path class="cls-1" d="M1416.72,441.37a38.56,38.56,0,0,1,4.61-18.14,31.79,31.79,0,0,1,13.09-13.39,39,39,0,0,1,18.91-4.61q16.14,0,26.44,10.47t10.31,26.48q0,16.13-10.41,26.74t-26.2,10.61a41.39,41.39,0,0,1-18.65-4.42,30.35,30.35,0,0,1-13.49-12.95Q1416.73,453.63,1416.72,441.37Zm19.27,1q0,10.58,5,16.2a16.42,16.42,0,0,0,24.74,0q5-5.62,5-16.34,0-10.44-5-16.06a16.42,16.42,0,0,0-24.74,0Q1436,431.81,1436,442.38Z"/><path class="cls-1" d="M1503.07,482.61l21.48,2.61c.36,2.5,1.18,4.21,2.48,5.15,1.78,1.34,4.6,2,8.43,2q7.36,0,11-2.21a9.13,9.13,0,0,0,3.75-4.75q.87-2.34.87-8.64V466.41q-8.45,11.5-21.29,11.51-14.33,0-22.69-12.11-6.57-9.58-6.56-23.83,0-17.88,8.6-27.32a27.75,27.75,0,0,1,21.39-9.43q13.18,0,21.75,11.58v-10h17.61v63.79q0,12.58-2.08,18.81a23.25,23.25,0,0,1-5.82,9.78,25.75,25.75,0,0,1-10,5.55,52.62,52.62,0,0,1-15.83,2q-18.08,0-25.64-6.19a19.43,19.43,0,0,1-7.56-15.7C1503,484.26,1503,483.5,1503.07,482.61Zm16.8-41.71q0,11.33,4.38,16.57a13.57,13.57,0,0,0,10.81,5.26,15,15,0,0,0,11.65-5.39q4.76-5.38,4.75-16,0-11-4.55-16.4a14.46,14.46,0,0,0-11.51-5.35,13.89,13.89,0,0,0-11.15,5.25Q1519.87,430.14,1519.87,440.9Z"/><path class="cls-1" d="M1587.14,398.13l9.24-20h21.08l-18.41,20Zm1.4,79.79V406.83h18.81v71.09Z"/><path class="cls-1" d="M1620,457.64l18.88-2.88a13.76,13.76,0,0,0,4.89,8.33q3.68,2.85,10.31,2.85,7.29,0,11-2.68a6,6,0,0,0,2.48-5,5,5,0,0,0-1.34-3.55c-.94-.89-3-1.71-6.29-2.47q-22.77-5-28.85-9.17a18.33,18.33,0,0,1-8.44-16,19.74,19.74,0,0,1,7.3-15.53q7.29-6.28,22.63-6.29,14.58,0,21.68,4.75T1684,424l-17.74,3.28a11,11,0,0,0-4.32-6.36q-3.18-2.2-9.07-2.21-7.42,0-10.64,2.07a4.47,4.47,0,0,0-2.15,3.82,4.16,4.16,0,0,0,1.88,3.41q2.54,1.88,17.57,5.29t21,8.37q5.9,5,5.9,14,0,9.76-8.17,16.8t-24.16,7q-14.53,0-23-5.89A27.17,27.17,0,0,1,1620,457.64Z"/><path class="cls-1" d="M1735.47,406.83v15h-12.85v28.65q0,8.7.37,10.14a4.12,4.12,0,0,0,1.67,2.37,5.27,5.27,0,0,0,3.18.94,24.28,24.28,0,0,0,7.57-1.81l1.6,14.6a37.43,37.43,0,0,1-14.86,2.81,23.53,23.53,0,0,1-9.17-1.71,13.38,13.38,0,0,1-6-4.42,17.41,17.41,0,0,1-2.64-7.33c-.41-2.18-.6-6.6-.6-13.25v-31h-8.64v-15h8.64V392.71l18.87-11v25.1Z"/><path class="cls-1" d="M1748.52,397.19v-17.4h18.81v17.4Zm0,80.73V406.83h18.81v71.09Z"/><path class="cls-1" d="M1848.6,427.85l-18.54,3.35q-.94-5.55-4.26-8.37a12.83,12.83,0,0,0-8.6-2.81,14.07,14.07,0,0,0-11.21,4.85q-4.18,4.86-4.18,16.24,0,12.64,4.25,17.87a13.94,13.94,0,0,0,11.41,5.22,12.64,12.64,0,0,0,8.77-3.05q3.42-3,4.82-10.47l18.47,3.14q-2.88,12.72-11,19.21t-21.89,6.5q-15.6,0-24.87-9.84t-9.27-27.25q0-17.6,9.31-27.41t25.16-9.8q13,0,20.66,5.59T1848.6,427.85Z"/><path class="cls-1" d="M1876.91,428.52l-17.07-3.08q2.88-10.31,9.91-15.26t20.88-4.95q12.58,0,18.75,3t8.66,7.56q2.52,4.59,2.51,16.83l-.2,22a75.29,75.29,0,0,0,.91,13.82,40.23,40.23,0,0,0,3.38,9.54H1906c-.49-1.25-1.1-3.1-1.81-5.55-.31-1.12-.53-1.86-.67-2.21a34.09,34.09,0,0,1-10.31,7,29.54,29.54,0,0,1-11.71,2.34q-11,0-17.3-6a19.79,19.79,0,0,1-6.33-15.06,20.23,20.23,0,0,1,2.88-10.75,18.84,18.84,0,0,1,8.06-7.22q5.19-2.52,15-4.39,13.18-2.47,18.27-4.62v-1.87c0-3.62-.89-6.19-2.68-7.73s-5.15-2.31-10.1-2.31q-5,0-7.84,2T1876.91,428.52Zm25.17,15.26a114.14,114.14,0,0,1-11.45,2.88q-7.83,1.68-10.24,3.28a7.86,7.86,0,0,0-3.68,6.63,9.25,9.25,0,0,0,2.94,6.83,10.34,10.34,0,0,0,7.5,2.87,16.31,16.31,0,0,0,9.71-3.34,11.79,11.79,0,0,0,4.48-6.23q.73-2.4.74-9.17Z"/></g></g></svg>