<svg xmlns="http://www.w3.org/2000/svg" viewBox="0 0 733.05 827.03"><defs><style>.cls-1{fill:#1b3349;}</style></defs><g id="Capa_2" data-name="Capa 2"><g id="Capa_1-2" data-name="Capa 1"><path class="cls-1" d="M708.86,432.31H655.81L438.38,323.6c38.4-49,20.62-121.68-37.51-146.72-17.78-7.66-13.29-28.47-13.92-31.71,11.6-1.13,25.17,3.75,35.59-8.25L464,89.13a24.15,24.15,0,0,0,5.91-15.87l-.06-49.11A24.19,24.19,0,0,0,445.66,0H282.6s-24.17,11.56-19.46,24.91v50c-4.8,5.83-2.7,11.47,1.12,15.88l42,48.37c10.57,12.19,24.14,7.19,32.11,8.34v9.7c3.86,29.23,20.86,55.43,47.16,66.77a48.13,48.13,0,0,1,29.22,46.36c-1.57,41.29-51.75,61.95-81.87,32.94A47.93,47.93,0,0,1,318,268.4a24.19,24.19,0,0,0-48.37,0,95.74,95.74,0,0,0,20.44,59.48L70.45,432.31H24.19A24.19,24.19,0,0,0,0,456.49V802.84A24.19,24.19,0,0,0,24.19,827H708.86a24.19,24.19,0,0,0,24.19-24.19V456.49A24.19,24.19,0,0,0,708.86,432.31ZM334.43,354.39a96.86,96.86,0,0,0,63.76-.06l156,78H178.61ZM169.16,704.54c3.74,13.36-7.09,24.19-20.45,24.19s-24.18-10.83-35.93-24.19V559.43c11.75-13.36,22.57-24.18,35.93-24.18s24.19,10.82,20.45,24.18Zm150.37,0c-1.52,13.36-12.35,24.19-25.71,24.19s-24.18-10.83-30.68-24.19V559.43c6.5-13.36,17.33-24.18,30.68-24.18s24.19,10.82,25.71,24.18Zm150.37,0c-6.78,13.36-17.61,24.19-31,24.19s-24.18-10.83-25.42-24.19V559.43c1.24-13.36,12.07-24.18,25.42-24.18s24.19,10.82,31,24.18Zm150.37,0c-12,13.36-22.87,24.19-36.23,24.19s-24.18-10.83-20.16-24.19V559.43c-4-13.36,6.81-24.18,20.16-24.18s24.19,10.82,36.23,24.18Z"/></g></g></svg>