<svg xmlns="http://www.w3.org/2000/svg" viewBox="0 0 691.03 697.27"><defs><style>.cls-1{fill:#1b3349;}</style></defs><g id="Capa_2" data-name="Capa 2"><g id="Capa_1-2" data-name="Capa 1"><g id="cost-money-supply-account-design"><path class="cls-1" d="M230.7,287.29H94.89c-31.23,0-56.55,24.51-56.58,54.72v43.78c0,30.21,25.35,54.68,56.58,54.72H230.7c31.24,0,56.55-24.51,56.59-54.72V342C287.25,311.8,261.94,287.33,230.7,287.29Zm2.57,134.07h-141a34.87,34.87,0,0,1-34.86-34.87V341.31a34.87,34.87,0,0,1,34.86-34.87h141a34.87,34.87,0,0,1,34.87,34.87v45.18A34.87,34.87,0,0,1,233.27,421.36Z"/><path class="cls-1" d="M85.86,459.66H67.36a29.05,29.05,0,0,0-29,29.06v18.5a29,29,0,0,0,29.05,29h18.5a29.05,29.05,0,0,0,29.06-29v-18.5A29.06,29.06,0,0,0,85.86,459.66ZM90,517.12H63.27a5.81,5.81,0,0,1-5.81-5.81V484.63a5.81,5.81,0,0,1,5.81-5.81H90a5.81,5.81,0,0,1,5.81,5.81v26.68A5.81,5.81,0,0,1,90,517.12Z"/><path class="cls-1" d="M85.86,574.58H67.36a29,29,0,0,0-29,29v18.51a29,29,0,0,0,29.05,29.05h18.5a29.06,29.06,0,0,0,29.06-29.05V603.63A29.06,29.06,0,0,0,85.86,574.58ZM90,632H63.27a5.81,5.81,0,0,1-5.81-5.81V599.54a5.81,5.81,0,0,1,5.81-5.81H90a5.81,5.81,0,0,1,5.81,5.81v26.69A5.81,5.81,0,0,1,90,632Z"/><path class="cls-1" d="M181.63,459.66H163.12a29.06,29.06,0,0,0-29.05,29.06v18.5a29,29,0,0,0,29.05,29h18.51a29,29,0,0,0,29.05-29v-18.5A29.06,29.06,0,0,0,181.63,459.66Zm4.09,57.46H159a5.81,5.81,0,0,1-5.81-5.81V484.63a5.81,5.81,0,0,1,5.81-5.81h26.69a5.81,5.81,0,0,1,5.81,5.81v26.68A5.81,5.81,0,0,1,185.72,517.12Z"/><path class="cls-1" d="M181.63,574.58H163.12a29.05,29.05,0,0,0-29.05,29v18.51a29.05,29.05,0,0,0,29.05,29.05h18.51a29.05,29.05,0,0,0,29.05-29.05V603.63A29.05,29.05,0,0,0,181.63,574.58ZM185.72,632H159a5.81,5.81,0,0,1-5.81-5.81V599.54a5.81,5.81,0,0,1,5.81-5.81h26.69a5.81,5.81,0,0,1,5.81,5.81v26.69A5.82,5.82,0,0,1,185.72,632Z"/><path class="cls-1" d="M294.82,555.43H241.45a11.62,11.62,0,0,0-11.62,11.62v72.52a11.62,11.62,0,0,0,11.62,11.62h53.37a11.62,11.62,0,0,0,11.62-11.62V567.05A11.62,11.62,0,0,0,294.82,555.43ZM268.14,632H249V574.58h19.16Z"/><path class="cls-1" d="M225.74,306.44H195.62a23.25,23.25,0,0,0-23.25,23.24V379a23.24,23.24,0,0,0,23.25,23.24h30.12A23.23,23.23,0,0,0,249,379V329.68A23.24,23.24,0,0,0,225.74,306.44Zm-15.06,76.61v-38.3h19.15v38.3Z"/><path class="cls-1" d="M294.82,459.66H241.45a11.62,11.62,0,0,0-11.62,11.62V505.5a11.62,11.62,0,0,0,11.62,11.62h53.37a11.62,11.62,0,0,0,11.62-11.62V471.28A11.62,11.62,0,0,0,294.82,459.66ZM268.14,498H249V478.82h19.16Z"/><path class="cls-1" d="M516.71,697.27A174.32,174.32,0,1,0,342.39,523,174.32,174.32,0,0,0,516.71,697.27Zm-124.55-89L412.4,596.6a128.85,128.85,0,0,0,30.66,30.67L431.37,647.5A152.26,152.26,0,0,1,392.16,608.29ZM536.27,395.71V372.47a149.59,149.59,0,0,1,53.54,14.39L578.19,407A126.81,126.81,0,0,0,536.27,395.71Zm-38.3,0A126.85,126.85,0,0,0,456.13,407l-11.62-20.16A149.65,149.65,0,0,1,498,372.47Zm18.74,22.65A104.6,104.6,0,1,1,412.12,523,104.59,104.59,0,0,1,516.71,418.36ZM644,536.27h23.24a149.59,149.59,0,0,1-14.39,53.54l-20.16-11.62A126.81,126.81,0,0,0,644,536.27Zm0-19.15a126.67,126.67,0,0,0-11.31-41.84l20.16-11.62a149.65,149.65,0,0,1,14.39,53.46ZM498,650.2v23.24a149.59,149.59,0,0,1-53.54-14.39l11.62-20.16A126.81,126.81,0,0,0,498,650.2Zm38.3,0a126.85,126.85,0,0,0,41.84-11.31l11.62,20.16a149.65,149.65,0,0,1-53.46,14.39ZM389.47,517.12H366.22a149.65,149.65,0,0,1,14.39-53.54l20.16,11.62A126.8,126.8,0,0,0,389.47,517.12Zm0,19.15a126.59,126.59,0,0,0,11.3,41.84l-20.16,11.62a149.65,149.65,0,0,1-14.39-53.46ZM602,647.5l-11.69-20.23A129.08,129.08,0,0,0,621,596.6l20.23,11.69A152.26,152.26,0,0,1,602,647.5Zm39.21-209.88L621,449.31a129.08,129.08,0,0,0-30.67-30.67L602,398.41a152.26,152.26,0,0,1,39.21,39.21ZM431.37,398.41l11.69,20.23a128.85,128.85,0,0,0-30.66,30.67l-20.24-11.69a152.26,152.26,0,0,1,39.21-39.21Z"/><path class="cls-1" d="M498,593.73h38.3V581.06c4.9,0,19.16-23.24,19.16-23.24V534.58s-14.26-23.25-27.1-17.46H517.12V498h38.31V459.66H536.27V440.51H498v24.34c-5.72,0-19.15,23.24-19.15,23.24v23.24s13.43,23.25,26.27,24.94h12v19.16h-38.3v19.15H498Z"/><path class="cls-1" d="M156.45,104.59a46.49,46.49,0,1,0,46.48,46.49A46.48,46.48,0,0,0,156.45,104.59Zm0,69.73a23.25,23.25,0,1,1,23.24-23.24A23.24,23.24,0,0,1,156.45,174.32Z"/><path class="cls-1" d="M598.06,197.56a46.49,46.49,0,1,0-46.49-46.48A46.48,46.48,0,0,0,598.06,197.56Zm0-69.73a23.25,23.25,0,1,1-23.25,23.25A23.25,23.25,0,0,1,598.06,127.83Z"/><path class="cls-1" d="M383.05,229.83V209.18c18.66,0,19.15-23.24,19.15-23.24V162.7s-.49-23.25-13.33-28.63h-25V114.92h38.3V95.76H383.05V76.61H363.9V93c-11.1,0-19.15,23.24-19.15,23.24v23.24s8.05,23.25,20.88,32.92h17.42v19.16h-38.3v19.15H363.9v19.15Z"/><path class="cls-1" d="M655,0H91.93A34.58,34.58,0,0,0,57.46,34.47V229.83h-23A34.58,34.58,0,0,0,0,264.31V655a34.57,34.57,0,0,0,34.47,34.47h275.8A34.57,34.57,0,0,0,344.75,655V306.44H655c19-.06,34.42-15.85,34.47-35.36V35.36C689.44,15.85,674,.06,655,0ZM95.76,30.77a11.63,11.63,0,0,1,11.62-11.62H129A46.69,46.69,0,0,1,95.76,52.39ZM314,670.34H30.77a11.62,11.62,0,0,1-11.62-11.62V260.61A11.63,11.63,0,0,1,30.77,249H314a11.63,11.63,0,0,1,11.62,11.63V658.72A11.62,11.62,0,0,1,314,670.34ZM295.9,151.08a81.35,81.35,0,1,1,81.35,81.34A81.35,81.35,0,0,1,295.9,151.08ZM670.34,275.67a11.62,11.62,0,0,1-11.62,11.62H637.1a46.7,46.7,0,0,1,33.24-33.24Zm0-63.1a68.33,68.33,0,0,0-56.42,55.57H344.75v-.85c-2.35-7.28-4.67-14.37-9-20.22a105.4,105.4,0,1,0-23.48-14.18,5.66,5.66,0,0,1-4.76-3.06H95.76V74.72a68.36,68.36,0,0,0,56.43-55.57H613.92a68.34,68.34,0,0,0,56.42,55.57Zm0-160.18A46.7,46.7,0,0,1,637.1,19.15h21.62a11.62,11.62,0,0,1,11.62,11.62Z"/></g></g></g></svg>