<svg xmlns="http://www.w3.org/2000/svg" viewBox="0 0 888.53 635.45"><defs><style>.cls-1{fill:#1b3349;}</style></defs><g id="Capa_2" data-name="Capa 2"><g id="Capa_1-2" data-name="Capa 1"><path class="cls-1" d="M274.19,272.34H63.82A12.82,12.82,0,0,0,51,285.16V386.6a12.83,12.83,0,0,0,12.83,12.83H274.19A12.84,12.84,0,0,0,287,386.6V285.16A12.83,12.83,0,0,0,274.19,272.34Z"/><path class="cls-1" d="M680.94,308.65H601.16a5.49,5.49,0,0,0-5.5,5.49v79.79a5.5,5.5,0,0,0,5.5,5.5H681a5.49,5.49,0,0,0,5.49-5.5V314.15A5.5,5.5,0,0,0,680.94,308.65Z"/><path class="cls-1" d="M572,308.65H492.23a5.5,5.5,0,0,0-5.5,5.5v79.78a5.5,5.5,0,0,0,5.5,5.5H572a5.51,5.51,0,0,0,5.51-5.51V314.15A5.5,5.5,0,0,0,572,308.65Z"/><path class="cls-1" d="M444.92,308.65H365.14a5.5,5.5,0,0,0-5.5,5.5v79.78a5.49,5.49,0,0,0,5.49,5.5h79.79a5.5,5.5,0,0,0,5.5-5.5V314.15A5.5,5.5,0,0,0,444.92,308.65Z"/><path class="cls-1" d="M572,199.71H492.23a5.5,5.5,0,0,0-5.5,5.5V285a5.49,5.49,0,0,0,5.49,5.49H572a5.51,5.51,0,0,0,5.51-5.5V205.21A5.5,5.5,0,0,0,572,199.71Z"/><path class="cls-1" d="M444.92,199.71H365.14a5.5,5.5,0,0,0-5.5,5.5V285a5.49,5.49,0,0,0,5.49,5.49h79.79a5.49,5.49,0,0,0,5.5-5.49V205.21A5.5,5.5,0,0,0,444.92,199.71Z"/><path class="cls-1" d="M207.06,145.25H130.94a7.33,7.33,0,0,0-7.33,7.32v94.28a7.33,7.33,0,0,0,7.33,7.33h76.12a7.33,7.33,0,0,0,7.33-7.33V152.58A7.33,7.33,0,0,0,207.06,145.25Z"/><path class="cls-1" d="M207.06,90.78h-29V11c-1.55-6.07-6.48-11-12.55-11s-11,4.92-5.6,11V90.78h-29a7.33,7.33,0,0,0-7.33,7.33v21.65a7.33,7.33,0,0,0,7.33,7.33h76.12a7.33,7.33,0,0,0,7.33-7.33V98.11A7.33,7.33,0,0,0,207.06,90.78Z"/><path class="cls-1" d="M888,401.74a4.5,4.5,0,0,0-3.94-2.31H739.12s-2.74,3.62-3.61,4.73l-19.37,13.42H4.67A4.68,4.68,0,0,0,.34,424s63.47,156.8,84.53,208.72a4.38,4.38,0,0,0,4.19,2.72H743.17a4.59,4.59,0,0,0,4.13-2.13c35-56.83,140.56-227,140.56-227A4.51,4.51,0,0,0,888,401.74ZM597.39,519.43a18,18,0,1,1,18-18A18,18,0,0,1,597.39,519.43Zm87.19,0a18,18,0,1,1,18-18A18,18,0,0,1,684.58,519.43Z"/></g></g></svg>