<svg xmlns="http://www.w3.org/2000/svg" viewBox="0 0 369.26 80.9"><defs><style>.cls-1{fill:#86162f;}</style></defs><g id="Capa_2" data-name="Capa 2"><g id="Capa_1-2" data-name="Capa 1"><polygon class="cls-1" points="52.31 45.11 64.34 45.11 74.26 0 62.73 0 52.31 45.11"/><path class="cls-1" d="M115.81,9.39a7.55,7.55,0,0,0-.5-5.71A7.49,7.49,0,0,0,111.2.17H92.05A10.68,10.68,0,0,0,80.92,7.49l-6.21,27a8.64,8.64,0,0,0,1,7.52,8.12,8.12,0,0,0,4.51,3h33.59a8,8,0,0,0-.7-6.11,8.13,8.13,0,0,0-5.82-3.81H86.84L93.26,9.29Z"/><path class="cls-1" d="M51.92,4.52C49.51.93,44,.06,40.79.06H8.69c-.08.31-1.35,6.08,2.93,10.33a14.31,14.31,0,0,0,10.3,2.86H39.21a2.4,2.4,0,0,1,0,4.51H20.64l-1.1,4.48H9a1.14,1.14,0,0,0,0,2.27H22.5a1.14,1.14,0,0,1,0,2.27H13.17A1.13,1.13,0,0,0,12,27.91V28a1.12,1.12,0,0,0,1.13,1.13H25a1.13,1.13,0,0,1,.14,2.26h-20a1.14,1.14,0,0,0,0,2.27H16.73L14,45.05H25.68l3.38-14.51h8.88a15.16,15.16,0,0,0,9.55-3.76,15.09,15.09,0,0,0,4.88-9.47C52.89,14.67,54.33,8.11,51.92,4.52Z"/><path class="cls-1" d="M6,24.51a1.14,1.14,0,0,0,0-2.27H4.77a1.14,1.14,0,1,0,0,2.27Z"/><path class="cls-1" d="M2.34,31.43H1.13a1.14,1.14,0,0,0,0,2.27H2.34a1.14,1.14,0,1,0,0-2.27Z"/><path class="cls-1" d="M181.54,10.39Q183.91.25,191,.25h24.42a7.66,7.66,0,0,1,6.5,2.94,8.29,8.29,0,0,1,1.27,7.2l-8,34.37H203.07L205.57,34H188.19L185.7,44.76H173.58ZM207.66,25l2.85-12.43c.26-1-.13-1.54-1.16-1.54H195.07a1.82,1.82,0,0,0-1.93,1.54L190.29,25Z"/><path class="cls-1" d="M329.3,44.76a7.76,7.76,0,0,1-6.53-2.93,8.08,8.08,0,0,1-1.24-7.21l5.59-24.23a14.19,14.19,0,0,1,4-7.2A10.08,10.08,0,0,1,338.39.25H361.2a7.67,7.67,0,0,1,6.5,2.94,8.32,8.32,0,0,1,1.27,7.2l-5.59,24.23a14.77,14.77,0,0,1-4,7.21,10,10,0,0,1-7.25,2.93Zm27.21-32.95c.14-.53-.06-.8-.59-.8h-16a1,1,0,0,0-1,.8l-5,21.39c-.1.54.11.81.65.81h16a.9.9,0,0,0,1-.81Z"/><path class="cls-1" d="M300.48,17.25l-.26,0H297.6L297,20l0,.08-.4,1.71a3.64,3.64,0,0,0,3.54,4.46h4.57l-1,4.45L303,33.2a1,1,0,0,1-1.09.81H285.63c-.34,0-.47-.17-.41-.5l5-21.7a1,1,0,0,1,1-.8h23a3.64,3.64,0,0,0,3.54-2.81l.81-3.5s0-.07,0-.1l1-4.35H289.74a10.33,10.33,0,0,0-7.09,2.82,13.69,13.69,0,0,0-4.18,7.32L271.9,38.83a4.81,4.81,0,0,0,.75,4.2,4.49,4.49,0,0,0,3.8,1.73H304.7q7.67,0,10-10.14l3-12.92h0l1-4.45H300.48Z"/><path class="cls-1" d="M169.63,9.6a7.47,7.47,0,0,0-.5-5.64A7.44,7.44,0,0,0,165.07.49H146.16a10.57,10.57,0,0,0-11,7.23Q132.1,21,129,34.36a8.54,8.54,0,0,0,1,7.43,8,8,0,0,0,4.46,3h33.18a7.91,7.91,0,0,0-.7-6A8,8,0,0,0,161.21,35H141L147.34,9.5Z"/><path class="cls-1" d="M270.41,3.32a7.67,7.67,0,0,0-6.51-3H233l-.74,3.19-8.42,36.27-1.17,5h8.84a4.13,4.13,0,0,0,4-3.2l1.89-8.19h0l.74-3.2h3.28a4.12,4.12,0,0,1,3.71,2.34l2.39,5,2.38,5h0a4.14,4.14,0,0,0,3.72,2.33H265l-3.45-6.14h0l-4.75-8.45H257a11.49,11.49,0,0,0,8.35-3,14.44,14.44,0,0,0,4.1-7.14l2.22-9.64A8.26,8.26,0,0,0,270.41,3.32ZM258.09,16.16l-.15.65a4.14,4.14,0,0,1-4,3.2H241.19c-.54,0-.73-.27-.59-.8l1.68-7.3a.9.9,0,0,1,1-.8h16Z"/><path class="cls-1" d="M66.67,76.29v-13H62V60.63H74.47v2.65H69.83v13Z"/><path class="cls-1" d="M82.33,76.29v-1.7A4.37,4.37,0,0,1,80.7,76a4.53,4.53,0,0,1-2.13.52,4.2,4.2,0,0,1-2-.5,3,3,0,0,1-1.32-1.41,6.36,6.36,0,0,1-.4-2.51V65h3v5.21A14.28,14.28,0,0,0,78,73.09a1.61,1.61,0,0,0,.6.86,1.84,1.84,0,0,0,1.11.31,2.39,2.39,0,0,0,1.38-.42,2.11,2.11,0,0,0,.83-1,12,12,0,0,0,.23-3.06V65h3V76.29Z"/><path class="cls-1" d="M94.33,76.29V60.63H106v2.65H97.49v3.47h7.87v2.64H97.49v4.26h8.76v2.64Z"/><path class="cls-1" d="M107.46,76.29l4.1-5.84L107.63,65h3.67l2,3.12L115.42,65H119l-3.85,5.37,4.2,6h-3.68l-2.31-3.51L111,76.29Z"/><path class="cls-1" d="M121,65h2.8v1.66a4.21,4.21,0,0,1,1.48-1.39,4.1,4.1,0,0,1,2.06-.53,4.32,4.32,0,0,1,3.35,1.55,6.26,6.26,0,0,1,1.38,4.32A6.43,6.43,0,0,1,130.67,75a4.33,4.33,0,0,1-3.36,1.58,3.83,3.83,0,0,1-1.71-.37A5.82,5.82,0,0,1,124,74.89v5.72h-3Zm3,5.48a4.4,4.4,0,0,0,.76,2.82,2.33,2.33,0,0,0,1.85.92,2.16,2.16,0,0,0,1.74-.84,4.34,4.34,0,0,0,.7-2.75,4.07,4.07,0,0,0-.72-2.65,2.21,2.21,0,0,0-1.77-.87,2.28,2.28,0,0,0-1.83.85A3.77,3.77,0,0,0,124,70.43Z"/><path class="cls-1" d="M141,72.68l3,.5a4.92,4.92,0,0,1-1.82,2.51,5.39,5.39,0,0,1-3.12.86,5.08,5.08,0,0,1-4.38-1.93,6.5,6.5,0,0,1-1.12-3.91A6.26,6.26,0,0,1,135,66.29a4.86,4.86,0,0,1,3.73-1.6,5.06,5.06,0,0,1,4,1.67,7.44,7.44,0,0,1,1.4,5.12h-7.52a3,3,0,0,0,.72,2.08,2.27,2.27,0,0,0,1.73.75,1.83,1.83,0,0,0,1.19-.39A2.44,2.44,0,0,0,141,72.68Zm.17-3a2.91,2.91,0,0,0-.68-2A2,2,0,0,0,139,67a2.07,2.07,0,0,0-1.62.71,2.76,2.76,0,0,0-.63,2Z"/><path class="cls-1" d="M149.49,76.29h-3V65h2.79v1.61a4.79,4.79,0,0,1,1.28-1.51,2.4,2.4,0,0,1,1.3-.36,3.8,3.8,0,0,1,2,.57l-.93,2.61a2.72,2.72,0,0,0-1.41-.49,1.68,1.68,0,0,0-1.07.35,2.4,2.4,0,0,0-.69,1.25,17.78,17.78,0,0,0-.25,3.81Z"/><path class="cls-1" d="M160.34,65v2.39h-2.06v4.57a11.09,11.09,0,0,0,.06,1.62.68.68,0,0,0,.27.38.85.85,0,0,0,.51.15,3.87,3.87,0,0,0,1.2-.29l.26,2.33a6,6,0,0,1-2.37.45,3.76,3.76,0,0,1-1.46-.27,2.09,2.09,0,0,1-1-.71,2.87,2.87,0,0,1-.42-1.17,13.49,13.49,0,0,1-.1-2.11v-5h-1.38V65h1.38V62.69l3-1.75v4Z"/><path class="cls-1" d="M161.73,70.46a6.18,6.18,0,0,1,.73-2.9,5.05,5.05,0,0,1,2.09-2.13,6.11,6.11,0,0,1,3-.74,5.68,5.68,0,0,1,4.22,1.67,5.77,5.77,0,0,1,1.65,4.23,5.86,5.86,0,0,1-1.67,4.27,5.59,5.59,0,0,1-4.18,1.69,6.56,6.56,0,0,1-3-.71,4.79,4.79,0,0,1-2.16-2.06A6.93,6.93,0,0,1,161.73,70.46Zm3.07.16a3.79,3.79,0,0,0,.8,2.59,2.59,2.59,0,0,0,2,.89,2.55,2.55,0,0,0,2-.89,3.83,3.83,0,0,0,.8-2.61,3.77,3.77,0,0,0-.8-2.57,2.55,2.55,0,0,0-2-.89,2.59,2.59,0,0,0-2,.89A3.79,3.79,0,0,0,164.8,70.62Z"/><path class="cls-1" d="M188.44,72.68l3,.5a4.86,4.86,0,0,1-1.82,2.51,5.39,5.39,0,0,1-3.12.86,5.08,5.08,0,0,1-4.38-1.93A6.57,6.57,0,0,1,181,70.71a6.22,6.22,0,0,1,1.48-4.42,4.83,4.83,0,0,1,3.73-1.6,5,5,0,0,1,4,1.67c1,1.12,1.44,2.82,1.4,5.12h-7.52a3,3,0,0,0,.73,2.08,2.26,2.26,0,0,0,1.73.75,1.8,1.8,0,0,0,1.18-.39A2.37,2.37,0,0,0,188.44,72.68Zm.17-3a3,3,0,0,0-.67-2,2.19,2.19,0,0,0-3.19,0,2.86,2.86,0,0,0-.63,2Z"/><path class="cls-1" d="M204.36,76.29h-3V70.5a9.43,9.43,0,0,0-.19-2.38,1.61,1.61,0,0,0-.63-.83,1.79,1.79,0,0,0-1-.3,2.43,2.43,0,0,0-1.4.42,2.19,2.19,0,0,0-.85,1.14,9.9,9.9,0,0,0-.23,2.6v5.14h-3V65h2.79v1.66a4.54,4.54,0,0,1,3.74-1.92,4.47,4.47,0,0,1,1.81.36,3.05,3.05,0,0,1,1.25.91,3.48,3.48,0,0,1,.59,1.26,9.45,9.45,0,0,1,.16,2Z"/><path class="cls-1" d="M213.59,76.29V60.76h3.17V73.65h7.86v2.64Z"/><path class="cls-1" d="M226.16,70.46a6.19,6.19,0,0,1,.74-2.9A5,5,0,0,1,229,65.43a6.08,6.08,0,0,1,3-.74,5.66,5.66,0,0,1,4.22,1.67,5.77,5.77,0,0,1,1.65,4.23,5.85,5.85,0,0,1-1.66,4.27A5.61,5.61,0,0,1,232,76.55a6.6,6.6,0,0,1-3-.71,4.82,4.82,0,0,1-2.15-2.06A6.93,6.93,0,0,1,226.16,70.46Zm3.08.16a3.74,3.74,0,0,0,.8,2.59,2.64,2.64,0,0,0,4,0,3.82,3.82,0,0,0,.79-2.61A3.76,3.76,0,0,0,234,68a2.64,2.64,0,0,0-4,0A3.74,3.74,0,0,0,229.24,70.62Z"/><path class="cls-1" d="M239.94,77l3.43.42a1.16,1.16,0,0,0,.4.82,2.27,2.27,0,0,0,1.35.32,3.55,3.55,0,0,0,1.76-.35,1.51,1.51,0,0,0,.6-.76,4.65,4.65,0,0,0,.14-1.38V74.46a4.07,4.07,0,0,1-3.4,1.83,4.17,4.17,0,0,1-3.62-1.93,6.57,6.57,0,0,1-1-3.8,6.26,6.26,0,0,1,1.37-4.36,4.42,4.42,0,0,1,3.42-1.51,4.16,4.16,0,0,1,3.47,1.85V65h2.81V75.13a10.15,10.15,0,0,1-.33,3,3.73,3.73,0,0,1-.93,1.56,4.16,4.16,0,0,1-1.6.89,8.57,8.57,0,0,1-2.53.32,6.54,6.54,0,0,1-4.09-1,3.12,3.12,0,0,1-1.21-2.51C239.93,77.3,239.94,77.18,239.94,77Zm2.69-6.66a4.08,4.08,0,0,0,.7,2.65,2.15,2.15,0,0,0,1.72.84,2.39,2.39,0,0,0,1.86-.86,3.75,3.75,0,0,0,.76-2.55,3.94,3.94,0,0,0-.73-2.62A2.29,2.29,0,0,0,245.1,67a2.2,2.2,0,0,0-1.77.84A3.88,3.88,0,0,0,242.63,70.38Z"/><path class="cls-1" d="M253.36,63.56l1.48-3.2h3.37l-2.94,3.2Zm.23,12.73V65h3V76.29Z"/><path class="cls-1" d="M258.61,73.06l3-.46a2.26,2.26,0,0,0,.78,1.33,2.67,2.67,0,0,0,1.65.45A2.91,2.91,0,0,0,265.8,74a.93.93,0,0,0,.4-.8.75.75,0,0,0-.22-.56,2.25,2.25,0,0,0-1-.4,16.24,16.24,0,0,1-4.61-1.46A3,3,0,0,1,259,68.17a3.17,3.17,0,0,1,1.16-2.48,5.44,5.44,0,0,1,3.61-1,6.29,6.29,0,0,1,3.47.76,3.9,3.9,0,0,1,1.56,2.24l-2.84.53a1.77,1.77,0,0,0-.68-1,2.59,2.59,0,0,0-1.45-.35,3.27,3.27,0,0,0-1.7.33.71.71,0,0,0-.34.61.66.66,0,0,0,.3.54,11.35,11.35,0,0,0,2.8.85,8.39,8.39,0,0,1,3.35,1.33,2.78,2.78,0,0,1,.94,2.24,3.42,3.42,0,0,1-1.3,2.68,5.77,5.77,0,0,1-3.86,1.12,6.29,6.29,0,0,1-3.67-.94A4.37,4.37,0,0,1,258.61,73.06Z"/><path class="cls-1" d="M277,65v2.39H275v4.57a11.09,11.09,0,0,0,.06,1.62.68.68,0,0,0,.27.38.85.85,0,0,0,.51.15,3.94,3.94,0,0,0,1.2-.29l.26,2.33a6,6,0,0,1-2.37.45,3.85,3.85,0,0,1-1.47-.27,2.11,2.11,0,0,1-.95-.71,2.6,2.6,0,0,1-.42-1.17,13.49,13.49,0,0,1-.1-2.11v-5H270.6V65H272V62.69l3-1.75v4Z"/><path class="cls-1" d="M279.13,63.41V60.63h3v2.78Zm0,12.88V65h3V76.29Z"/><path class="cls-1" d="M295.1,68.3l-3,.54a2.11,2.11,0,0,0-.68-1.34,2,2,0,0,0-1.37-.45,2.24,2.24,0,0,0-1.79.78,4,4,0,0,0-.67,2.59,4.62,4.62,0,0,0,.68,2.85,2.21,2.21,0,0,0,1.82.83,2,2,0,0,0,1.4-.48,2.9,2.9,0,0,0,.77-1.68l2.95.51a5.18,5.18,0,0,1-1.76,3.06,5.45,5.45,0,0,1-3.49,1A5.17,5.17,0,0,1,286,75a6.09,6.09,0,0,1-1.48-4.35A6.13,6.13,0,0,1,286,66.25a5.29,5.29,0,0,1,4-1.56,5.54,5.54,0,0,1,3.3.89A4.94,4.94,0,0,1,295.1,68.3Z"/><path class="cls-1" d="M299.62,68.41l-2.72-.49a4.21,4.21,0,0,1,1.58-2.44,5.77,5.77,0,0,1,3.33-.79,7.37,7.37,0,0,1,3,.47,3,3,0,0,1,1.38,1.21,6.18,6.18,0,0,1,.4,2.69l0,3.5a12.86,12.86,0,0,0,.14,2.21,6.81,6.81,0,0,0,.54,1.52h-3c-.08-.2-.17-.49-.29-.88-.05-.18-.08-.3-.1-.36a5.59,5.59,0,0,1-1.65,1.13,4.69,4.69,0,0,1-1.87.37,3.87,3.87,0,0,1-2.76-1,3.39,3.39,0,0,1-.55-4.12,2.89,2.89,0,0,1,1.29-1.15,9.84,9.84,0,0,1,2.38-.7,16.54,16.54,0,0,0,2.92-.74v-.3a1.52,1.52,0,0,0-.43-1.23A2.51,2.51,0,0,0,301.6,67a2.16,2.16,0,0,0-1.25.31A2.22,2.22,0,0,0,299.62,68.41Zm4,2.43a15.66,15.66,0,0,1-1.83.46,5.57,5.57,0,0,0-1.63.53,1.25,1.25,0,0,0-.59,1,1.46,1.46,0,0,0,.47,1.09,1.62,1.62,0,0,0,1.2.46,2.57,2.57,0,0,0,1.55-.53,1.86,1.86,0,0,0,.71-1,5.89,5.89,0,0,0,.12-1.47Z"/></g></g></svg>